# xmcd
#
# Track frame offsets: 
#        150
#        20057
#        43990
#        77865
#        97962
#
# Disc length: 1572 seconds
#
# Revision: 0
# Processed by: cddbd v1.5.2PL0 Copyright (c) Steve Scherf et al.
# Submitted via: ExactAudioCopy v1.3
#
DISCID=3a062205
DTITLE=Grady Harrell - Patience (Promo CDM)
DYEAR=1991
DGENRE=Funk
TTITLE0=Patience (7'' Single)
TTITLE1=Patience (Radio Edit)
TTITLE2=Patience (12'' Extended Mix)
TTITLE3=Patience (7'' Single With Dub Bass)
TTITLE4=Patience (Percussapella)
EXTD=
EXTT0=
EXTT1=
EXTT2=
EXTT3=
EXTT4=
PLAYORDER=
